<?xml version="1.0" encoding="utf-8"?>
<!-- Generated by IcoMoon.io -->
<!DOCTYPE svg PUBLIC "-//W3C//DTD SVG 1.1//EN" "http://www.w3.org/Graphics/SVG/1.1/DTD/svg11.dtd">
<svg version="1.1" xmlns="http://www.w3.org/2000/svg" xmlns:xlink="http://www.w3.org/1999/xlink" width="28" height="32" viewBox="0 0 28 32">
<path d="M14 2c7.75 0 14 6.438 14 14.375 0 6.313-4 11.75-9.563 13.625h-0.25c-0.5 0-0.75-0.438-0.75-0.75 0-0.5 0.063-1.938 0.063-3.875 0-1.313-0.5-2.25-1-2.688 3.125-0.375 6.438-1.563 6.438-7.063 0-1.563-0.563-2.875-1.438-3.875 0.125-0.375 0.625-1.813-0.125-3.813h-0.313c-0.5 0-1.688 0.188-3.563 1.5-1.125-0.313-2.313-0.5-3.5-0.5s-2.375 0.188-3.5 0.5c-1.875-1.313-3.063-1.5-3.563-1.5h-0.313c-0.75 2-0.25 3.438-0.125 3.813-0.875 1-1.438 2.313-1.438 3.875 0 5.5 3.25 6.688 6.375 7.063-0.375 0.375-0.75 1-0.875 1.938-0.375 0.188-1 0.375-1.625 0.375-0.813 0-1.75-0.313-2.438-1.563 0 0-0.813-1.375-2.188-1.5v0c-0.125 0-1.313 0-0.063 0.875 0 0 0.938 0.5 1.563 2.125 0 0 0.625 2.063 3.313 2.063 0.438 0 0.875 0 1.375-0.125v2.438c0 0.313-0.188 0.688-0.688 0.688h-0.25c-5.563-1.875-9.563-7.25-9.563-13.625 0-7.938 6.25-14.375 14-14.375z"></path>
</svg>
