<?xml version="1.0" encoding="utf-8"?>
<!-- Generated by IcoMoon.io -->
<!DOCTYPE svg PUBLIC "-//W3C//DTD SVG 1.1//EN" "http://www.w3.org/Graphics/SVG/1.1/DTD/svg11.dtd">
<svg version="1.1" xmlns="http://www.w3.org/2000/svg" xmlns:xlink="http://www.w3.org/1999/xlink" width="24" height="32" viewBox="0 0 24 32">
<path d="M12 4c6.625 0 12 5.375 12 12s-5.375 12-12 12-12-5.375-12-12 5.375-12 12-12zM19.625 9.5c-1.063 1.563-2.938 2.938-5.313 4 0.313 0.625 0.563 1.25 0.813 1.938 2.063-0.188 4.688-0.25 6.875-0.125-0.125-2.188-1-4.25-2.375-5.813zM12 6c-0.875 0-1.625 0.125-2.438 0.313 1.438 1.438 2.688 3.313 3.875 5.438 2.125-0.875 3.875-2.063 4.938-3.438-1.75-1.438-3.938-2.313-6.375-2.313zM7.5 7.125c-2.563 1.313-4.438 3.625-5.188 6.438h1.563c2.75 0 5.313-0.375 7.563-1.063-1.188-2.125-2.5-3.938-3.938-5.375zM2 15.5v0.5c0 2.5 0.938 4.875 2.5 6.625 1.5-2.813 4.188-5.188 7.625-6.625 0.25-0.125 0.5-0.188 0.875-0.25-0.188-0.5-0.375-1-0.625-1.5-2.5 0.813-5.5 1.25-8.625 1.313-0.563 0-1.188-0.063-1.75-0.063zM12 26c1.25 0 2.438-0.188 3.563-0.625-0.188-1.563-0.5-3.313-0.938-4.938-0.25-1.063-0.625-2.063-1-3.063-0.438 0.125-0.813 0.25-1.063 0.375-3 1.375-5.375 3.5-6.688 6.125 1.688 1.313 3.813 2.125 6.125 2.125zM17.375 24.375c2.5-1.625 4.25-4.188 4.563-7.25-1.875-0.125-4.25-0.188-6.188 0 0.25 0.75 0.563 1.563 0.75 2.375 0.438 1.688 0.688 3.25 0.875 4.875z"></path>
</svg>
