<?xml version="1.0" encoding="utf-8"?>
<!-- Generated by IcoMoon.io -->
<!DOCTYPE svg PUBLIC "-//W3C//DTD SVG 1.1//EN" "http://www.w3.org/Graphics/SVG/1.1/DTD/svg11.dtd">
<svg version="1.1" xmlns="http://www.w3.org/2000/svg" xmlns:xlink="http://www.w3.org/1999/xlink" width="30" height="32" viewBox="0 0 30 32">
<path d="M29.5 6.875c-0.813 1.25-1.813 2.25-3 3.125v0.75c0 8-6.125 17.25-17.25 17.25-3.438 0-6.563-1-9.25-2.75 0.5 0.063 0.938 0.125 1.438 0.125 2.813 0 5.438-1 7.5-2.625-2.625-0.063-4.875-1.813-5.625-4.188 0.375 0.063 0.75 0.125 1.125 0.125 0.563 0 1.125-0.125 1.625-0.25-2.75-0.563-4.875-3-4.875-5.938v-0.063c0.813 0.438 1.75 0.75 2.75 0.75-1.625-1.063-2.688-2.938-2.688-5.063 0-1.125 0.313-2.125 0.813-3 3 3.688 7.438 6.063 12.438 6.313-0.125-0.438-0.125-0.875-0.125-1.375 0-3.375 2.688-6.063 6.063-6.063 1.75 0 3.25 0.75 4.375 1.938 1.375-0.25 2.688-0.813 3.875-1.5-0.438 1.438-1.438 2.625-2.688 3.375 1.25-0.125 2.438-0.438 3.5-0.938z"></path>
</svg>
