<?xml version="1.0" encoding="utf-8"?>
<!-- Generated by IcoMoon.io -->
<!DOCTYPE svg PUBLIC "-//W3C//DTD SVG 1.1//EN" "http://www.w3.org/Graphics/SVG/1.1/DTD/svg11.dtd">
<svg version="1.1" xmlns="http://www.w3.org/2000/svg" xmlns:xlink="http://www.w3.org/1999/xlink" width="24" height="32" viewBox="0 0 24 32">
<path d="M22.688 4c0.75 0 1.313 0.563 1.313 1.313v21.375c0 0.75-0.563 1.313-1.313 1.313h-6.688v-9.5h3.125l0.438-3.5h-3.563v-2.25c0-1.063 0.313-1.75 1.813-1.75h2.188v-3.25c-0.313-0.063-1.75-0.125-3.063-0.125-2.75 0-4.938 1.688-4.938 4.813v2.563h-2.875v3.5h2.875v9.5h-10.688c-0.75 0-1.313-0.563-1.313-1.313v-21.375c0-0.75 0.563-1.313 1.313-1.313h21.375z"></path>
</svg>
